  <svg xmlns="http://www.w3.org/2000/svg" width="900" height="500">  
    <ellipse cx="350" cy="340" rx="75" ry="20" stroke="#d3d3d3" fill="#d3d3d3" />
    <circle cx="350" cy="220" r="120" stroke="#ffa500" fill="#ffa500" />
    <circle cx="340" cy="180" r="45" stroke="#ffffff" fill="#ffffff" />
    <circle cx="400" cy="180" r="45" stroke="#ffffff" fill="#ffffff" />
    <circle cx="350" cy="180" r="10" stroke="#000000" fill="#00000" />
    <circle cx="410" cy="180" r="10" stroke="#000000" fill="#00000" />
    <circle cx="375" cy="225" r="15" stroke="#000000" fill="#00000" />
    <ellipse cx="360" cy="265" rx="20" ry="10" stroke="#dc143c" fill="#dc143c" />
    <polygon points="265,98 320,108 256,150" stroke="#ffa500" fill="#ffa500" />
    <polygon points="270,105 300,110 265,135" stroke="#000000" fill="#000000" />
    <polygon points="366,105 408,84 428,130" stroke="#ffa500" fill="#ffa500" />
    <polygon points="380,104 405,92 415,118" stroke="#000000" fill="#000000" />
    <ellipse cx="190" cy="250" rx="75" ry="30" stroke="#ffa500" fill="#ffa500" transform="rotate(15 190 250)" />
    <polygon points="125,228 155,220 140,255" stroke="#ffffff" fill="#ffffff" />

    
    <ellipse cx="660" cy="340" rx="75" ry="20" stroke="#d3d3d3" fill="#d3d3d3" />
    <circle cx="660" cy="220" r="120" stroke="#ffd700" fill="#ffd700" />
    <circle cx="670" cy="180" r="45" stroke="#ffffff" fill="#ffffff" />
    <circle cx="610" cy="180" r="45" stroke="#ffffff" fill="#ffffff" />
    <circle cx="660" cy="180" r="10" stroke="#000000" fill="#00000" />
    <circle cx="600" cy="180" r="10" stroke="#000000" fill="#00000" />
    <ellipse cx="640" cy="265" rx="10" ry="20" stroke="#dc143c" fill="#dc143c" />
  </svg>
