<svg xmlns="http://www.w3.org/2000/svg" viewBox="0 0 900 500"><ellipse cx="350" cy="340" rx="75" ry="20" stroke="#d3d3d3" fill="#d3d3d3"/><circle cx="350" cy="220" r="120" stroke="orange" fill="orange"/><circle cx="340" cy="180" r="45" stroke="#fff" fill="#fff"/><circle cx="400" cy="180" r="45" stroke="#fff" fill="#fff"/><circle cx="350" cy="180" r="10" stroke="#000" fill="#00000"/><circle cx="410" cy="180" r="10" stroke="#000" fill="#00000"/><circle cx="375" cy="225" r="15" stroke="#000" fill="#00000"/><ellipse cx="360" cy="265" rx="20" ry="10" stroke="#dc143c" fill="#dc143c"/><path stroke="orange" fill="orange" d="m265 98 55 10-64 42z"/><path stroke="#000" d="m270 105 30 5-35 25z"/><path stroke="orange" fill="orange" d="m366 105 42-21 20 46z"/><path stroke="#000" d="m380 104 25-12 10 26z"/><ellipse cx="190" cy="250" rx="75" ry="30" stroke="orange" fill="orange" transform="rotate(15 190 250)"/><path stroke="#fff" fill="#fff" d="m125 228 30-8-15 35z"/><ellipse cx="660" cy="340" rx="75" ry="20" stroke="#d3d3d3" fill="#d3d3d3"/><circle cx="660" cy="220" r="120" stroke="gold" fill="gold"/><circle cx="670" cy="180" r="45" stroke="#fff" fill="#fff"/><circle cx="610" cy="180" r="45" stroke="#fff" fill="#fff"/><circle cx="660" cy="180" r="10" stroke="#000" fill="#00000"/><circle cx="600" cy="180" r="10" stroke="#000" fill="#00000"/><ellipse cx="640" cy="265" rx="10" ry="20" stroke="#dc143c" fill="#dc143c"/></svg>