<svg xmlns="http://www.w3.org/2000/svg" width="347" height="146"><path style="fill:#fff;fill-opacity:1;stroke:none" d="M31.818-383.281h347v19h-347zM31.818-256.281h347v19h-347z" transform="translate(-31.818 383.28)"/><path d="M44.5-347.393v74.625h19v-56.187L81-272.768h21l17.5-56.187v56.187h19v-74.625H107l-15.5 48.875L76-347.393H44.5z" style="fill:#fff;stroke:none" transform="translate(-31.818 383.28)"/><path d="M157-347.768v47.867c0 6.694 1.455 14.653 7.35 20.644 5.896 5.99 14.624 8.49 25.4 8.49 10.776 0 19.535-2.5 25.43-8.49 5.897-5.99 7.32-13.95 7.32-20.644v-47.867h-19.848v48.43c0 7.198-5.777 13.032-12.902 13.032-7.125 0-12.902-5.834-12.902-13.031v-48.43H157z" style="font-size:medium;font-style:normal;font-variant:normal;font-weight:400;font-stretch:normal;text-indent:0;text-align:start;text-decoration:none;line-height:normal;letter-spacing:normal;word-spacing:normal;text-transform:none;direction:ltr;block-progression:tb;writing-mode:lr-tb;text-anchor:start;color:#fff;fill:#fff;fill-opacity:1;stroke:none;stroke-width:19.99999809;marker:none;visibility:visible;display:inline;overflow:visible;enable-background:accumulate;font-family:Andale Mono;-inkscape-font-specification:Andale Mono" transform="translate(-31.818 383.28)"/><path d="M313-347.28v75h52.875v-13.988H332v-17.656h31.375v-14H332v-15.531h33.875v-13.826H313z" style="fill:#fff;fill-opacity:1;stroke:none" transform="translate(-31.818 383.28)"/><path d="M239.531-326.638c0 28.334 34.947 21.138 34.947 34 0 12.862-22.8 4.878-32.583 2.256l-1.703 16.85c17.882 4.65 55.433 7.51 55.433-21.631 0-29.14-34.877-18.206-35.45-31.475-.575-13.269 23.423-6.094 30.015-4.328l1.01-15.155c-9.689-2.596-51.669-8.85-51.669 19.483z" style="font-size:123.21078491px;font-style:normal;font-variant:normal;font-weight:700;font-stretch:normal;text-align:center;text-anchor:middle;fill:#fff;fill-opacity:1;stroke:none;font-family:Verdana;-inkscape-font-specification:Andale Mono Bold" transform="translate(-31.818 383.28)"/></svg>